<svg xmlns="http://www.w3.org/2000/svg" viewBox="0 0 324.45 334.72"><defs><style>.cls-1{fill:#e5c880;}.cls-2{fill:#0d0d0d;}.cls-2,.cls-3,.cls-6,.cls-7,.cls-8,.cls-9{stroke:#040505;}.cls-11,.cls-2,.cls-3,.cls-4,.cls-5,.cls-6,.cls-7,.cls-8,.cls-9{stroke-miterlimit:10;}.cls-2,.cls-3{stroke-width:4px;}.cls-3{fill:#040505;}.cls-4{fill:#060707;stroke:#060707;}.cls-5{fill:#020202;stroke:#090a0a;}.cls-6,.cls-8,.cls-9{fill:none;}.cls-6,.cls-7{stroke-width:8px;}.cls-7{fill:#090a0a;}.cls-8{stroke-width:3px;}.cls-9{stroke-width:2px;}.cls-10{font-size:58px;fill:#1d1d1b;font-family:BookmanOldStyle, Bookman Old Style;}.cls-11{fill:#ee7522;stroke:#000;stroke-width:0.75px;}</style></defs><title>Recurso 2</title><g id="Capa_2" data-name="Capa 2"><g id="Capa_1-2" data-name="Capa 1"><ellipse class="cls-1" cx="162.22" cy="167.36" rx="162.22" ry="167.36"/><path class="cls-2" d="M27.86,214.31a8.28,8.28,0,0,1,2.9,2l3.88,5.48,4.51,6.13,7.19,10a30.6,30.6,0,0,1,3.38,5,11.18,11.18,0,0,1,.65,3.55,10.31,10.31,0,0,1-1.21,3.63,9.5,9.5,0,0,1-2.5,2.66A8,8,0,0,1,43,254a7.75,7.75,0,0,1-3.31-.4A8.06,8.06,0,0,1,36.49,251l-4.76-6.54-9.28-13a41.11,41.11,0,0,1-4.68-6.81,10.19,10.19,0,0,1,0-5.73,7.21,7.21,0,0,1,3-4,6.26,6.26,0,0,1,2.74-1.12A8.66,8.66,0,0,1,27.86,214.31Z"/><path class="cls-2" d="M41.05,195.19a12.83,12.83,0,0,1,3.51,2.9l26.38,37.4a10,10,0,0,1,.73,5.32,7.68,7.68,0,0,1-2.54,3.39,7.47,7.47,0,0,1-3.39,2.06,12.27,12.27,0,0,1-4.84,0,19.77,19.77,0,0,1-5.57-6.17L31,205.9c-1.07-2.12-1.17-3.48-.71-4.9a17.18,17.18,0,0,1,2.68-4.62,7.79,7.79,0,0,1,3.9-1.92C39.11,194.26,40,194.41,41.05,195.19Z"/><path class="cls-3" d="M50.37,176.31a16.26,16.26,0,0,1,4.6,4.36l14.76,20.57a169.29,169.29,0,0,1,17.91-5.45,262.08,262.08,0,0,1,35.83-7.5,327.46,327.46,0,0,1,45.74-2.54,296.81,296.81,0,0,1,41.88,4.35c9.75,1.61,19.7,4.07,30.25,6.78A67.45,67.45,0,0,1,251.91,200l2.74,1.21c6.71-9.66,13.47-19.44,17.67-23.72,1.58-1.28,3.67-1.7,6.3-1.21a10.42,10.42,0,0,1,5.08,3.39,6.53,6.53,0,0,1,1,4.84,15.19,15.19,0,0,1-2.18,5.32l-38.24,53c-1.51,1.45-3.72,2.06-6.54,1.94a8.32,8.32,0,0,1-6.05-4.36,10.85,10.85,0,0,1,.48-6.77l13.56-18.89c-11.91-4.37-26.89-7.81-43.08-10.89q-17.13-2.13-35.1-2.9a379.25,379.25,0,0,0-42.36,2.66,277.3,277.3,0,0,0-46,10.89l14,19.13a10.61,10.61,0,0,1,.49,5.54c-.35,2.09-2.13,3.48-4.34,5.12-.87.75-5.75,1.22-7,.1L40.45,187.2a9.07,9.07,0,0,1,0-6.53,7.94,7.94,0,0,1,5.08-4.36C47,175.82,49.48,175.78,50.37,176.31Z"/><path class="cls-2" d="M283.62,195.11a12.16,12.16,0,0,1,6.13.08,6.65,6.65,0,0,1,3.95,3.63,9.29,9.29,0,0,1,.41,5.81,81.49,81.49,0,0,1-5.54,8.71l-22.78,31.47A11.09,11.09,0,0,1,260,246a9.25,9.25,0,0,1-5.81-3.39,7.93,7.93,0,0,1,0-6.78l28.32-40.12A3,3,0,0,1,283.62,195.11Z"/><path class="cls-2" d="M274.66,243.84l20.25-28.2A7,7,0,0,1,299.8,214a6.09,6.09,0,0,1,4.23,1,8.59,8.59,0,0,1,2.66,3.23,7.63,7.63,0,0,1-1.05,8.8l-18.55,25.49c-1.08,1-3.11,1.23-4.92,1.37a10.39,10.39,0,0,1-5.33-2,9.76,9.76,0,0,1-2.18-3.8C274.3,246.56,274,245,274.66,243.84Z"/><circle class="cls-4" cx="82.52" cy="103.27" r="6.9"/><circle class="cls-4" cx="151.98" cy="172.38" r="6.9"/><ellipse class="cls-4" cx="152.04" cy="172.38" rx="4.3" ry="3.99"/><circle class="cls-4" cx="82.55" cy="103.42" r="3.66"/><polygon class="cls-4" points="90.62 107.75 87.48 111.02 91.35 115.01 95.34 119.13 101.27 124.45 106.96 128.44 107.69 129.05 107.69 119.13 100.67 116.46 96.31 114.41 90.62 107.75"/><polygon class="cls-4" points="104.84 188.41 108.72 188.41 108.35 177.46 109.87 167.23 112.41 160.4 115.01 155.62 115.01 150.47 111.08 156.88 107.75 165.12 105.81 172.13 104.84 180.42 104.84 188.41"/><path class="cls-4" d="M109.93,188.41h20a29.69,29.69,0,0,0,5.08-8.29,39.37,39.37,0,0,0,2.6-9.92,27.11,27.11,0,0,0,6.11-11.86,14.73,14.73,0,0,0,0-6.54,13,13,0,0,0-1.57-3.63,26.94,26.94,0,0,0-2-3.33,17.67,17.67,0,0,0-1.75-2.6,11.14,11.14,0,0,0-1.88-1.69l-1.75-1.15a16.65,16.65,0,0,1-3-3.33,8.89,8.89,0,0,1-1.84-3.84,19.43,19.43,0,0,1-.28-4.09,14.3,14.3,0,0,1,.86-5.57c2.53-2.16,8.42-14.42,7.31-15.91l1,.36a20.58,20.58,0,0,1,1.17,4.42,23.29,23.29,0,0,0,1.07,2.6l1.45,2.3,2.61,4.48,2.11,4.42,1.27,3.81.37,6.17.3,6.72.18,4.66A12.26,12.26,0,0,0,150,150v8.11l.3,5.14,5.2-.36v-11.8L157.13,138V126a52.63,52.63,0,0,0-1.64-8.77,88.83,88.83,0,0,0-4.11-12.34l-3.75-8.12-1-5.56a2.89,2.89,0,0,0-1.09-1.87L138,87l-3.75-1.34a1.45,1.45,0,0,1-.42-1.27L134,79l.12-1.64A4.3,4.3,0,0,1,135.46,75a19.44,19.44,0,0,0,2-1.45,18.13,18.13,0,0,0,1.94-2.48,11,11,0,0,0,1-1.69,7.9,7.9,0,0,0,1.08-2.06,7.47,7.47,0,0,1,.37-1.7,9,9,0,0,1,.54-1.93c0-.43,0-.93.06-1.45a6.52,6.52,0,0,1,.43,2.17,12.68,12.68,0,0,1-.25,2.79,16.82,16.82,0,0,0-1.21,3.87,5.54,5.54,0,0,0,.12,2.06,6,6,0,0,0,.91,1.87l1,1.15a2.64,2.64,0,0,1,.48,1.52,22.35,22.35,0,0,0,2.24-3.45,25.46,25.46,0,0,0,2.42-3.63,29.88,29.88,0,0,0,1.52-4.9s.86-2.45,1.33-4.3c.24-.31,1.24-4.19,1-4.06a7.74,7.74,0,0,0,.06-4.29,6.37,6.37,0,0,0-2.12-2.54,7.27,7.27,0,0,0-2.48-1.88,9.79,9.79,0,0,0-4.06-1.09,9.14,9.14,0,0,0-2.66,0,7.24,7.24,0,0,0-2.9,1.62l-.73,1.27-.24.48-2.3-1a10.27,10.27,0,0,0-3.33-.6,9.33,9.33,0,0,0-2.9.24,14,14,0,0,0-2.55.36,9.44,9.44,0,0,0-2.17.73,2.88,2.88,0,0,0-1,1.21,8.39,8.39,0,0,1-2.42,1.21,10.24,10.24,0,0,0-1.82.24,6.1,6.1,0,0,0-2.42.67,9.52,9.52,0,0,0-1.81,2.48,12.37,12.37,0,0,0-.49,3.33l.24,3.2c.07.29.33.52.73.73a2.81,2.81,0,0,0,1.09-1.27,1.73,1.73,0,0,1,.54,1.39l.13,2.12.06,2.3A3,3,0,0,1,116,70a3.26,3.26,0,0,0-.61,1.7,2.51,2.51,0,0,0,.37,1.45l.6,1.39a4.58,4.58,0,0,0,.79,1.21,19.49,19.49,0,0,1,1.45,2.9,6.16,6.16,0,0,1,1.15,1.88l.06,1c.07.46.2.77.49.73l2.17.12,1.15-.06a1,1,0,0,1,.25.9l.06,3.33a3.8,3.8,0,0,1-1.52,1.27,15.93,15.93,0,0,1-4.23.55h-3.88a7.53,7.53,0,0,0-3,1.21,9.31,9.31,0,0,0-1,3.45,10.65,10.65,0,0,0,.24,3.74l.37.86.66-1.52.91-2,.73-.91a46.3,46.3,0,0,1-2.18,6.29l-2.36,3.39a13.44,13.44,0,0,0-2.3,3.09,9.08,9.08,0,0,0-.91,1.81,6.07,6.07,0,0,0,.42,3.45,3,3,0,0,0,.67,1.52,14.1,14.1,0,0,0,1.33,2l1.21,1c0,1.55.21,3.14.25,4.95l.82,4.49c.69,1,.24.55.56,1.69a21.61,21.61,0,0,1,.85,2.6,77.83,77.83,0,0,0,1,8.23,58.28,58.28,0,0,0,2.36,9,8.25,8.25,0,0,0,1.15,2.06c0,.62.2,1.34.2,2.11a16.47,16.47,0,0,1-.2,4.78,7.38,7.38,0,0,1-1.15,3,16.51,16.51,0,0,0-1.94,3.33,46.18,46.18,0,0,0-1.63,6.53,16.2,16.2,0,0,0-.73,5.09,26.31,26.31,0,0,0-.78,4.84A52,52,0,0,0,109.93,188.41Z"/><path class="cls-5" d="M184.67,50.4a13.62,13.62,0,0,1,4.24,0,17.07,17.07,0,0,1,5.33,1.29A9.86,9.86,0,0,1,198,54,13.08,13.08,0,0,1,201,57.82a4.22,4.22,0,0,1,0,1.94V62a5.16,5.16,0,0,1-1,2.58l-.32,3.23a3.41,3.41,0,0,1-1.3,1.61l.49,4.84a12.73,12.73,0,0,1-2.74,1.45L195.37,78l-1.29,2.26-1.24,1.45a9.29,9.29,0,0,1-3.93-1l-2.25-.81a7.5,7.5,0,0,0-1.13,4.68l7.31,4.84a9.41,9.41,0,0,1,3.34,4.84l1.13,1.29a18,18,0,0,1,6.45,3.23,14.83,14.83,0,0,1,3.87,4.84,9.84,9.84,0,0,1,1.94,5.81,14.75,14.75,0,0,1,2.42-6.78,10.52,10.52,0,0,1,3.87-4.19l3.55.32,6.43.16a41.24,41.24,0,0,1-1.1,12.1,47.55,47.55,0,0,1-3.39,11.14,9.66,9.66,0,0,1-2.74,5.16,6.88,6.88,0,0,1-3.39,2.58,9.22,9.22,0,0,1-4.84,0,28.65,28.65,0,0,1-8.4-3.87,29.12,29.12,0,0,1-7.42-4.68,7,7,0,0,1-2.42,3.55v4l-1.29,2.59.65,4.19-1.94,6.13,6.29,7.1c5.82,6.82,6.52,7.93,9.41,13.23a73.17,73.17,0,0,1,9,17.59,9.94,9.94,0,0,1,.68,7.63L197.14,190a43.28,43.28,0,0,1-8.87-8.07L171.49,165a29.29,29.29,0,0,1-7.59-3.71,13.63,13.63,0,0,1-4.62-11.3,33.75,33.75,0,0,1,3.66-10,42.67,42.67,0,0,0,2.25-9.85,146.46,146.46,0,0,0-7.1-20.49,32.25,32.25,0,0,1,0-15.65,43.56,43.56,0,0,1,9.36-13.23,38,38,0,0,0,6.3-10,42.59,42.59,0,0,1-.65-9.52,15.19,15.19,0,0,1,2.1-6.94,17.79,17.79,0,0,1,6-3.19A10.07,10.07,0,0,1,184.67,50.4Z"/><circle class="cls-5" cx="220.86" cy="81.38" r="16.14"/><circle class="cls-5" cx="220.78" cy="81.46" r="10.89"/><path class="cls-5" d="M168.74,165.41a4.39,4.39,0,0,1,2.1,1.49c2.37,1.84,8.7,8.22,9.36,10a36.08,36.08,0,0,1-1,12.42H164.87A77.34,77.34,0,0,1,168.74,165.41Z"/><path class="cls-6" d="M259.43,113.72c0,54.49-39.7,87.51-100.27,79.46-41.48,7.69-100.26-25-100.26-79.46S103.79,15,159.16,15,259.43,59.22,259.43,113.72Z"/><polygon class="cls-7" points="172.03 225.36 166.88 229.88 167.68 236.69 161.78 233.19 155.55 236.05 157.07 229.36 152.41 224.32 159.24 223.7 162.6 217.71 165.31 224.01 172.03 225.36"/><polygon class="cls-7" points="133.27 231.71 129.6 234.93 130.17 239.78 125.97 237.28 121.53 239.33 122.61 234.56 119.29 230.97 124.16 230.52 126.55 226.26 128.48 230.75 133.27 231.71"/><polygon class="cls-7" points="208.6 231.45 204.93 234.68 205.5 239.53 201.3 237.03 196.86 239.08 197.94 234.31 194.63 230.72 199.49 230.27 201.88 226.01 203.81 230.5 208.6 231.45"/><path class="cls-8" d="M264.11,113c0,57.36-41.78,92.1-105.53,83.63C114.92,204.75,53.05,170.38,53.05,113S100.3,9.16,158.58,9.16,264.11,55.66,264.11,113Z"/><path class="cls-9" d="M252.25,113.07c0,50.6-36.85,81.25-93.09,73.78-38.51,7.13-93.09-23.18-93.09-73.78s41.68-91.61,93.09-91.61S252.25,62.48,252.25,113.07Z"/><text class="cls-10" transform="translate(53.05 291.1) scale(1.31 1)"> <tspan class="cls-11" x="18.55" y="0">Gym</tspan></text></g></g></svg>